/* XPM */
static char * closeO_xpm[] = {
"16 32 5 1",
" 	c None",
".	c #444444",
"+	c #FFFFFF",
"@	c #232323",
"#	c #E7EFF4",
"................",
"................",
"................",
"................",
"....++....++....",
"....+++..+++....",
".....++++++.....",
"......++++......",
"......++++......",
".....++++++.....",
"....+++..+++....",
"....++....++....",
"................",
"................",
"................",
"................",
"@@@@@@@@@@@@@@@@",
"@@@@@@@@@@@@@@@@",
"@@@@@@@@@@@@@@@@",
"@@@@@@@@@@@@@@@@",
"@@@@##@@@@##@@@@",
"@@@@###@@###@@@@",
"@@@@@######@@@@@",
"@@@@@@####@@@@@@",
"@@@@@@####@@@@@@",
"@@@@@######@@@@@",
"@@@@###@@###@@@@",
"@@@@##@@@@##@@@@",
"@@@@@@@@@@@@@@@@",
"@@@@@@@@@@@@@@@@",
"@@@@@@@@@@@@@@@@",
"@@@@@@@@@@@@@@@@"};
