/* XPM */
static char * restoreI_xpm[] = {
"16 32 4 1",
" 	c None",
".	c #444444",
"+	c #FFFFFF",
"@	c #232323",
"................",
"................",
"................",
"................",
".....+++++++....",
"...........+....",
"....++++++.+....",
"....++++++.+....",
"....+....+.+....",
"....+....+.+....",
"....+....+.+....",
"....++++++......",
"................",
"................",
"................",
"................",
"@@@@@@@@@@@@@@@@",
"@@@@@@@@@@@@@@@@",
"@@@@@@@@@@@@@@@@",
"@@@@@@@@@@@@@@@@",
"@@@@@+++++++@@@@",
"@@@@@@@@@@@+@@@@",
"@@@@++++++@+@@@@",
"@@@@++++++@+@@@@",
"@@@@+....+@+@@@@",
"@@@@+....+@+@@@@",
"@@@@+....+@+@@@@",
"@@@@++++++@@@@@@",
"@@@@@@@@@@@@@@@@",
"@@@@@@@@@@@@@@@@",
"@@@@@@@@@@@@@@@@",
"@@@@@@@@@@@@@@@@"};
