/* XPM */
static char * icewm_xpm[] = {
"40 22 5 1",
" 	c None",
".	c #444444",
"+	c #ECECEC",
"@	c #C4C4C4",
"#	c #D9D9D9",
"........................................",
"........................................",
"........................................",
"........................................",
"........................................",
"........................................",
"........................................",
"........................................",
".......+++++@....#++++#....@+++++.......",
".......+++++@....#++++#....@+++++.......",
".......+++++@....#++++#....@+++++.......",
".......+++++@....#++++#....@+++++.......",
".......+++++@....#++++#....@+++++.......",
".......+++++@....#++++#....@+++++.......",
"........................................",
"........................................",
"........................................",
"........................................",
"........................................",
"........................................",
"........................................",
"........................................"};
